<?xml version="1.0" standalone="no"?>
<!DOCTYPE svg PUBLIC "-//W3C//DTD SVG 20010904//EN"
 "http://www.w3.org/TR/2001/REC-SVG-20010904/DTD/svg10.dtd">
<svg version="1.0" xmlns="http://www.w3.org/2000/svg"
 width="512.000000pt" height="512.000000pt" viewBox="0 0 512.000000 512.000000"
 preserveAspectRatio="xMidYMid meet">
<metadata>
Created by potrace 1.11, written by Peter Selinger 2001-2013
</metadata>
<g transform="translate(0.000000,512.000000) scale(0.100000,-0.100000)"
fill="#000000" stroke="none">
<path d="M415 5110 c-22 -5 -60 -16 -85 -25 -150 -53 -285 -212 -319 -373 -16
-75 -16 -4229 0 -4304 29 -137 148 -293 269 -351 126 -61 -23 -57 2280 -57
2303 0 2154 -4 2280 57 121 58 240 214 269 351 16 75 16 4229 0 4304 -29 137
-148 293 -269 351 -127 61 23 57 -2280 56 -1158 -1 -2123 -5 -2145 -9z m791
-1845 c86 -15 222 -49 231 -59 7 -7 -45 -141 -54 -139 -5 1 -45 11 -89 23 -43
11 -124 26 -180 32 -168 19 -309 -18 -397 -106 -50 -51 -91 -130 -114 -223
-24 -95 -24 -379 0 -476 38 -153 115 -255 224 -298 104 -40 303 -38 451 6 l52
16 0 194 0 195 -120 0 -121 0 3 73 3 72 205 0 205 0 3 -322 2 -321 -57 -22
c-32 -12 -107 -33 -168 -47 -140 -33 -362 -38 -462 -10 -273 76 -407 268 -429
616 -17 276 51 523 181 651 112 112 237 156 446 159 53 0 136 -6 185 -14z
m1007 -112 c129 -411 352 -1093 356 -1093 3 0 92 269 198 598 l191 597 136 3
135 3 6 -33 c6 -35 165 -1354 165 -1369 0 -12 -167 -12 -174 0 -4 5 -38 271
-78 590 -39 320 -74 581 -78 581 -3 0 -93 -264 -200 -587 l-195 -588 -107 -3
-107 -3 -185 563 c-101 310 -188 575 -191 591 -13 53 -23 36 -35 -61 -6 -53
-39 -320 -73 -592 l-62 -495 -87 -3 c-79 -2 -88 -1 -88 15 0 25 160 1365 165
1381 3 9 40 12 139 12 l135 0 34 -107z m2057 82 c239 -53 382 -183 434 -398
41 -166 38 -429 -7 -584 -57 -196 -176 -307 -390 -364 -55 -15 -134 -22 -338
-31 -146 -6 -274 -8 -283 -5 -15 6 -16 67 -16 708 l0 702 263 -6 c189 -4 283
-10 337 -22z"/>
<path d="M3860 2561 l0 -551 138 0 c227 0 340 36 431 135 85 94 115 205 114
420 0 161 -17 247 -65 337 -75 141 -198 195 -465 205 l-153 6 0 -552z"/>
</g>
</svg>
