<svg xmlns="http://www.w3.org/2000/svg" xmlns:xlink="http://www.w3.org/1999/xlink" width="0" height="0" style="position:absolute">
	
		<symbol id="close" viewBox="0 0 612 612">
			<path d="M612 36.004L576.521.603 306 270.608 35.478.603 0 36.004l270.522 270.007L0 575.997l35.478 35.4L306 341.411l270.521 269.986 35.479-35.4-270.541-269.986z"></path>
		</symbol>
	
		<symbol id="facebook" viewBox="0 0 430.113 430.114">
			<path d="M158.081 83.3v59.218h-43.385v72.412h43.385v215.183h89.122V214.936h59.805s5.601-34.721 8.316-72.685H247.54V92.74c0-7.4 9.717-17.354 19.321-17.354h48.557V.001h-66.021C155.878-.004 158.081 72.48 158.081 83.3z"></path>
		</symbol>
	
		<symbol id="hand" viewBox="0 0 497.25 497.25">
			<path d="M144.788 66.938c0-26.775 21.038-47.812 47.812-47.812s47.812 21.038 47.812 47.812v45.9c11.474-11.475 19.125-28.688 19.125-45.9C259.538 30.6 228.938 0 192.601 0s-66.938 30.6-66.938 66.938c0 19.125 7.65 34.425 19.125 45.9v-45.9z"></path><path d="M422.1 172.125c-15.3 0-28.688 13.388-28.688 28.688v47.812h-19.125v-66.937c0-15.3-13.388-28.688-28.688-28.688s-28.688 13.388-28.688 28.688V229.5h-19.125v-66.938c0-15.3-13.388-28.688-28.688-28.688s-28.687 13.388-28.687 28.688v86.063h-19.125V66.938c0-15.3-13.388-28.688-28.688-28.688S163.91 51.638 163.91 66.938v196.987c-40.163-42.075-91.8-87.975-112.837-66.938-21.038 21.038 32.512 78.413 107.1 204.638 34.425 57.375 76.5 95.625 149.174 95.625 78.412 0 143.438-65.025 143.438-143.438v-153c.003-15.299-13.385-28.687-28.685-28.687z"></path>
		</symbol>
	
		<symbol id="phone" viewBox="0 0 459 459">
			<path d="M91.8 198.9c35.7 71.4 96.9 130.05 168.3 168.3l56.1-56.1c7.649-7.649 17.85-10.199 25.5-5.1 28.05 10.2 58.649 15.3 91.8 15.3 15.3 0 25.5 10.2 25.5 25.5v86.7c0 15.3-10.2 25.5-25.5 25.5C193.8 459 0 265.2 0 25.5 0 10.2 10.2 0 25.5 0h89.25c15.3 0 25.5 10.2 25.5 25.5 0 30.6 5.1 61.2 15.3 91.8 2.55 7.65 0 17.85-5.1 25.5L91.8 198.9z"></path>
		</symbol>
	
		<symbol id="recall" viewBox="0 0 294.842 294.842">
			<path d="M240.072 0H54.77a6 6 0 0 0-6 6v282.842a6 6 0 0 0 6 6h185.303a6 6 0 0 0 6-6V6a6.002 6.002 0 0 0-6.001-6zm-6 12v230.818H60.77V52.023h152.651a6 6 0 0 0 0-12H60.77V12h173.302zM60.77 282.842v-28.023h173.303v28.023H60.77z"></path><path d="M147.421 174.421a6 6 0 0 0 6-6V95.956a6 6 0 0 0-12 0v72.465a6 6 0 0 0 6 6z"></path><path d="M175.706 162.116L147.421 190.4l-28.285-28.284a6 6 0 0 0-8.484 8.486l32.527 32.526c1.171 1.171 2.707 1.757 4.242 1.757s3.071-.586 4.242-1.757l32.527-32.526a6 6 0 0 0-8.484-8.486z"></path>
		</symbol>
	
		<symbol id="settings" viewBox="0 0 268.765 268.765">
			<path d="M267.92 119.461c-.425-3.778-4.83-6.617-8.639-6.617-12.315 0-23.243-7.231-27.826-18.414-4.682-11.454-1.663-24.812 7.515-33.231a7.463 7.463 0 0 0 .817-10.133 132.977 132.977 0 0 0-21.289-21.5c-3.063-2.458-7.557-2.116-10.213.825-8.01 8.871-22.398 12.168-33.516 7.529-11.57-4.867-18.866-16.591-18.152-29.176a7.455 7.455 0 0 0-6.595-7.849 134.163 134.163 0 0 0-30.232-.08 7.478 7.478 0 0 0-6.654 7.689c.438 12.461-6.946 23.98-18.401 28.672-10.985 4.487-25.272 1.218-33.266-7.574-2.642-2.896-7.063-3.252-10.141-.853a133.478 133.478 0 0 0-21.74 21.493c-2.481 3.086-2.116 7.559.802 10.214 9.353 8.47 12.373 21.944 7.514 33.53-4.639 11.046-16.109 18.165-29.24 18.165-4.261-.137-7.296 2.723-7.762 6.597a134.618 134.618 0 0 0-.058 30.561c.422 3.794 4.961 6.608 8.812 6.608 11.702-.299 22.937 6.946 27.65 18.415 4.698 11.454 1.678 24.804-7.514 33.23a7.469 7.469 0 0 0-.817 10.126 133.459 133.459 0 0 0 21.259 21.508c3.079 2.481 7.559 2.131 10.228-.81 8.04-8.893 22.427-12.184 33.501-7.536 11.599 4.852 18.895 16.575 18.181 29.167a7.464 7.464 0 0 0 6.595 7.85 133.572 133.572 0 0 0 30.233.081 7.479 7.479 0 0 0 6.653-7.696c-.451-12.454 6.946-23.973 18.386-28.657 11.059-4.517 25.286-1.211 33.281 7.572a7.51 7.51 0 0 0 10.142.848 133.787 133.787 0 0 0 21.74-21.494 7.461 7.461 0 0 0-.803-10.213c-9.353-8.47-12.388-21.946-7.529-33.524 4.568-10.899 15.612-18.217 27.491-18.217l1.662.043c3.853.313 7.398-2.655 7.865-6.588a134.504 134.504 0 0 0 .06-30.561zm-133.325 60.03c-24.718 0-44.824-20.106-44.824-44.824 0-24.717 20.106-44.824 44.824-44.824 24.717 0 44.823 20.107 44.823 44.824 0 24.718-20.106 44.824-44.823 44.824z" fill-rule="evenodd" clip-rule="evenodd"></path>
		</symbol>
	
		<symbol id="shopping-basket" viewBox="0 0 512 512">
			<path d="M475.871 322.065v-16.516h-96.25l8.468-90.065-16.444-1.548-8.613 91.613h-98.774V214.71h-16.516v90.839h-98.774l-8.613-91.613-16.444 1.548 8.468 90.065h-96.25v16.516h97.802l6.988 74.323H53.331v16.516h89.141l7.06 75.097 16.444-1.548-6.915-73.548h88.681v74.323h16.516v-74.323h88.681l-6.915 73.548L362.468 488l7.06-75.097h89.141v-16.516H371.08l6.988-74.323 97.803.001zm-318.363 74.322l-6.987-74.323h97.221v74.323h-90.234zm196.984 0h-90.234v-74.323h97.221l-6.987 74.323z"></path><path d="M425.258 495.484H86.742c-15.968 0-29.645-11.407-32.5-27.121L8.395 216.186l16.242-2.952 45.847 252.173a16.526 16.526 0 0 0 16.258 13.56h338.516a16.527 16.527 0 0 0 16.258-13.565l45.847-252.169 16.242 2.952-45.847 252.173c-2.855 15.719-16.532 27.126-32.5 27.126z"></path><path d="M495.484 222.968H16.516C7.395 222.968 0 215.573 0 206.452c0-9.122 7.395-16.516 16.516-16.516h478.968c9.122 0 16.516 7.395 16.516 16.516 0 9.121-7.395 16.516-16.516 16.516z"></path><path d="M144.227 216.701c-8.097-4.2-11.257-14.168-7.058-22.266l87.65-169.004c4.2-8.097 14.168-11.257 22.266-7.058 8.097 4.2 11.257 14.168 7.058 22.266l-87.65 169.004c-4.2 8.098-14.169 11.258-22.266 7.058z"></path><path d="M153.685 198.844l87.65-169.004c2.154-4.154 5.834-6.981 9.993-8.209-1.217-1.265-2.599-2.404-4.244-3.257-8.097-4.2-18.066-1.04-22.265 7.057l-87.65 169.004c-4.2 8.097-1.04 18.066 7.058 22.265v.001c3.943 2.045 8.323 2.317 12.272 1.151-4.775-4.962-6.16-12.556-2.814-19.008zM264.916 18.374c-8.097 4.2-11.257 14.168-7.058 22.266l87.65 169.004c4.2 8.097 14.168 11.257 22.266 7.058 8.097-4.2 11.257-14.168 7.058-22.266l-87.65-169.004c-4.2-8.098-14.169-11.258-22.266-7.058z"></path><path d="M274.374 36.231l87.65 169.004c2.154 4.154 5.834 6.981 9.993 8.209-1.217 1.265-2.599 2.404-4.244 3.257-8.097 4.2-18.066 1.04-22.265-7.057L257.858 40.64c-4.2-8.097-1.04-18.066 7.058-22.265v-.001c3.943-2.045 8.323-2.317 12.272-1.151-4.775 4.962-6.16 12.556-2.814 19.008zM121.264 189.936h-96.49a8.258 8.258 0 0 0 0 16.516h90.135c2.277 0 3.932-1.917 3.938-4.193.012-4.192.841-8.359 2.417-12.323zm200.856 10.486l-5.438-10.486H195.319l-5.438 10.486c-1.425 2.749.569 6.03 3.665 6.03h124.909c3.096 0 5.091-3.282 3.665-6.03zm165.106-10.486h-96.501a32.967 32.967 0 0 1 2.31 12.393c-.016 2.316 2.041 4.123 4.357 4.123h89.834a8.258 8.258 0 0 0 0-16.516z"></path>
		</symbol>
	
		<symbol id="triangle" viewBox="0 0 404.308 404.309">
			<path d="M0 101.08h404.308L202.151 303.229 0 101.08z"></path>
		</symbol>
	
		<symbol id="triangleDown" viewBox="0 0 292.362 292.362">
			<path d="M286.935 69.377c-3.614-3.617-7.898-5.424-12.848-5.424H18.274c-4.952 0-9.233 1.807-12.85 5.424C1.807 72.998 0 77.279 0 82.228c0 4.948 1.807 9.229 5.424 12.847l127.907 127.907c3.621 3.617 7.902 5.428 12.85 5.428s9.233-1.811 12.847-5.428L286.935 95.074c3.613-3.617 5.427-7.898 5.427-12.847 0-4.948-1.814-9.229-5.427-12.85z"></path>
		</symbol>
	
		<symbol id="triangleTop" viewBox="0 0 292.362 292.361">
			<path d="M286.935 197.287L159.028 69.381c-3.613-3.617-7.895-5.424-12.847-5.424s-9.233 1.807-12.85 5.424L5.424 197.287C1.807 200.904 0 205.186 0 210.134s1.807 9.233 5.424 12.847c3.621 3.617 7.902 5.425 12.85 5.425h255.813c4.949 0 9.233-1.808 12.848-5.425 3.613-3.613 5.427-7.898 5.427-12.847s-1.814-9.23-5.427-12.847z"></path>
		</symbol>
	
</svg>
